<?xml version="1.0" encoding="UTF-8" standalone="no"?> <svg id="Layer_1" data-name="Layer 1" xmlns="http://www.w3.org/2000/svg" viewBox="0 0 512 512"><defs><style>.cls-1{fill:#ad92cc;}.cls-2{opacity:0.1;}.cls-3{fill:#231f20;}.cls-4{fill:#f4607f;}.cls-5{fill:#fff;}</style></defs><title>speech-bubbles-flat</title><path class="cls-1" d="M512,204.8V390.4a19.17,19.17,0,0,1-19.2,19.2H448v57.6a19.18,19.18,0,0,1-11.84,17.73,18.44,18.44,0,0,1-7.36,1.47,19,19,0,0,1-13.57-5.63L344.06,409.6H211.2A19.17,19.17,0,0,1,192,390.4V204.8a19.17,19.17,0,0,1,19.2-19.2H492.8A19.17,19.17,0,0,1,512,204.8Z"/><g class="cls-2"><path class="cls-3" d="M512,204.8V390.4a19.17,19.17,0,0,1-19.2,19.2H448v57.6a19.18,19.18,0,0,1-11.84,17.73,18.44,18.44,0,0,1-7.36,1.47,19,19,0,0,1-13.57-5.63L344.06,409.6H339.2v-224H492.8A19.17,19.17,0,0,1,512,204.8Z"/></g><path class="cls-4" d="M435.2,44.8V313.6A19.17,19.17,0,0,1,416,332.8H167.94L96.77,404A19,19,0,0,1,83.2,409.6a18.44,18.44,0,0,1-7.36-1.47A19.18,19.18,0,0,1,64,390.4V332.8H19.2A19.17,19.17,0,0,1,0,313.6V44.8A19.17,19.17,0,0,1,19.2,25.6H416A19.17,19.17,0,0,1,435.2,44.8Z"/><path class="cls-5" d="M270.71,185.18a37.21,37.21,0,0,0-52.58-52.66l-.53.53-.53-.53a37.21,37.21,0,1,0-52.58,52.66l53.1,51.62Z"/><g class="cls-2"><path class="cls-3" d="M435.2,44.8V313.6A19.17,19.17,0,0,1,416,332.8H217.6V25.6H416A19.17,19.17,0,0,1,435.2,44.8Z"/></g></svg>