<?xml version="1.0" encoding="utf-8"?>
<!-- Generator: Adobe Illustrator 23.0.3, SVG Export Plug-In . SVG Version: 6.00 Build 0)  -->
<svg version="1.1" id="Capa_1" xmlns="http://www.w3.org/2000/svg" xmlns:xlink="http://www.w3.org/1999/xlink" x="0px" y="0px"
	 viewBox="0 0 187 187" style="enable-background:new 0 0 187 187;" xml:space="preserve">
<style type="text/css">
	.st0{fill:#4CB5AB;}
	.st1{fill:#010101;}
	.st2{fill:#3EC4FE;}
	.st3{fill:#040404;}
	.st4{fill:#020202;}
	.st5{fill:#FFD63F;}
	.st6{fill:#FF5454;}
	.st7{fill:none;stroke:#FFD63F;stroke-width:15;stroke-linecap:round;stroke-miterlimit:10;}
	.st8{fill:#030303;}
	.st9{fill:url(#SVGID_1_);}
	.st10{fill:url(#SVGID_2_);}
	.st11{fill:url(#SVGID_3_);}
	.st12{fill:url(#SVGID_4_);}
	.st13{fill:url(#SVGID_5_);}
	.st14{fill:url(#SVGID_6_);}
	.st15{fill:url(#SVGID_7_);}
	.st16{fill:url(#SVGID_8_);}
	.st17{fill:url(#SVGID_9_);}
	.st18{fill:#9469F7;}
	.st19{fill:#731A7C;}
	.st20{fill:#E83D24;}
	.st21{fill:#52B0D0;}
	.st22{fill:#DF4092;}
	.st23{fill:#2763BF;}
	.st24{fill:#50A730;}
	.st25{fill:#F7CF47;}
	.st26{fill:#ED8232;}
	.st27{fill:#BD356C;}
	.st28{fill:url(#SVGID_10_);}
	.st29{fill:url(#SVGID_11_);}
	.st30{fill:url(#SVGID_12_);}
	.st31{fill:url(#SVGID_13_);}
	.st32{fill:url(#SVGID_14_);}
	.st33{fill:url(#SVGID_15_);}
	.st34{fill:url(#SVGID_16_);}
	.st35{fill:url(#SVGID_17_);}
	.st36{fill:url(#SVGID_18_);}
</style>
<g>
	<g>
		<g>
			<path class="st27" d="M150.8,91.4c-1.4-11.3-10.4-11.7-17.7-10.2c-3.9,0.8-7,4.1-7,4.1c-3.8-3.5-5.7-5.7-11.6-5.3
				c-5.4,0.4-9.7,4-9.7,4c-3-5.3-11.1-3.7-11.1-3.7c-3.2,1.3-3.4-0.6-3.4-3c0.1-5.9,0-11.9,0-17.8c0-4-1.4-7.5-4.2-10.3
				c-4.5-4.4-9.8-5.9-15.8-3.7c-6.9,2.6-10,7.9-10.1,15c-0.1,12,0,24.1,0,36.1c0,8.9,0,17.8,0,26.7c0,8.2,0,16.3,2.6,24.3
				c5.8,18,24.1,31.3,43.3,31.1c19.2-0.2,37.7-13.1,42.7-31C154.1,129.1,151.8,110.2,150.8,91.4z"/>
		</g>
		<g>
			<path class="st27" d="M72.2,34.1C84.8,34.1,95,44.3,95,56.9c0,2.8,2.2,5,5,5s5-2.2,5-5c0-18.1-14.7-32.8-32.8-32.8
				S39.5,38.8,39.5,56.9c0,6.2,1.8,12.3,5.1,17.6c1,1.5,2.6,2.3,4.2,2.3c0.9,0,1.8-0.3,2.7-0.8c2.3-1.5,3-4.6,1.5-6.9
				c-2.3-3.6-3.5-7.9-3.5-12.2C49.5,44.3,59.7,34.1,72.2,34.1z"/>
		</g>
		<g>
			<path class="st27" d="M34.7,56.3c0-20.7,16.8-37.6,37.6-37.6s37.6,16.8,37.6,37.6c0,2.8,2.2,5,5,5s5-2.2,5-5
				c0-26.2-21.3-47.6-47.6-47.6S24.7,30.1,24.7,56.3c0,9.1,2.6,17.9,7.4,25.5c1,1.5,2.6,2.3,4.2,2.3c0.9,0,1.8-0.3,2.7-0.8
				c2.3-1.5,3-4.6,1.5-6.9C36.7,70.4,34.7,63.4,34.7,56.3z"/>
		</g>
	</g>
</g>
</svg>
